<svg xmlns="http://www.w3.org/2000/svg" version="1.1" viewBox="0 0 894 420">
  <defs>
    <style>
      .cls-1 {
        fill: #4ca771;
      }

      .cls-2 {
        isolation: isolate;
      }

      .cls-3 {
        fill: #34e0a1;
      }

      .cls-4 {
        fill: #fff;
      }

      .cls-5 {
        fill: #1c1c20;
      }
    </style>
  </defs>
  
  <g>
    <g id="Layer_1">
      <g id="Layer_2">
        <rect class="cls-5" x="-1554" width="6889" height="420"></rect>
      </g>
      <circle class="cls-1" cx="177.1" cy="303" r="21"></circle>
      <circle class="cls-1" cx="228.6" cy="303" r="21"></circle>
      <circle class="cls-1" cx="280.1" cy="303" r="21"></circle>
      <circle class="cls-1" cx="331.6" cy="303" r="21"></circle>
      <circle class="cls-1" cx="383.1" cy="303" r="21"></circle>
      <g class="cls-2">
        <path class="cls-4" d="M43.3,324.2c-1.9,0-3.7-.3-5.6-.8-1.8-.5-3.6-1.3-5.1-2.4-1.6-1.1-3-2.5-4.1-4.1-1.2-1.7-2.1-3.6-2.6-5.9l8.6-3.3c.5,2.4,1.5,4.3,3.1,5.8,1.5,1.4,3.4,2.2,5.8,2.2s2.2-.2,3.2-.6,1.8-1,2.6-1.7c.7-.7,1.3-1.6,1.7-2.6s.6-2.1.6-3.3-.2-2.2-.6-3.2-1-1.8-1.7-2.6c-.7-.7-1.6-1.3-2.6-1.7-1-.4-2.1-.6-3.3-.6s-2.8.3-4,1c-1.2.6-2.1,1.5-3,2.4l-9.1-4.2,2.9-24.6h27.7v8.3h-19.9l-1.9,11.5h.6c1-.7,2.1-1.4,3.5-1.9,1.4-.6,3.1-.9,5-.9s4,.4,5.9,1.2,3.5,1.9,5,3.3c1.4,1.4,2.6,3.2,3.5,5.2s1.3,4.3,1.3,6.8-.4,4.7-1.3,6.8c-.9,2.1-2.1,3.8-3.6,5.3-1.6,1.5-3.4,2.7-5.5,3.5s-4.5,1.3-7,1.3v-.2h-.1Z"></path>
        <path class="cls-4" d="M73.9,323c-1.7,0-3.2-.6-4.4-1.8-1.2-1.2-1.8-2.6-1.8-4.3s.6-3.1,1.8-4.2c1.2-1.2,2.7-1.7,4.4-1.7s3.2.6,4.4,1.7c1.2,1.2,1.8,2.6,1.8,4.2s-.6,3.1-1.8,4.3c-1.2,1.2-2.7,1.8-4.4,1.8Z"></path>
        <path class="cls-4" d="M107.4,324.2c-3.2,0-6-.7-8.6-2-2.5-1.3-4.7-3.1-6.5-5.4s-3.2-5-4.1-8.2c-1-3.1-1.4-6.5-1.4-10.2s.5-7,1.4-10.2c1-3.1,2.3-5.9,4.1-8.2,1.8-2.3,4-4.1,6.5-5.4s5.4-2,8.6-2,6,.7,8.6,2c2.5,1.3,4.7,3.1,6.5,5.4s3.2,5,4.1,8.2c1,3.1,1.4,6.5,1.4,10.2s-.5,7-1.4,10.2c-1,3.1-2.3,5.9-4.1,8.2-1.8,2.3-4,4.1-6.5,5.4s-5.4,2-8.6,2ZM107.4,315.2c1.7,0,3.3-.4,4.7-1.3,1.4-.8,2.6-2,3.6-3.5s1.7-3.3,2.2-5.4.8-4.3.8-6.7-.3-4.7-.8-6.7-1.2-3.8-2.2-5.3-2.2-2.7-3.6-3.5-3-1.3-4.7-1.3-3.4.4-4.8,1.3c-1.4.8-2.6,2-3.5,3.5-1,1.5-1.7,3.3-2.2,5.3s-.8,4.3-.8,6.7.3,4.6.8,6.7,1.2,3.9,2.2,5.4,2.1,2.7,3.5,3.5,3,1.3,4.8,1.3Z"></path>
      </g>
      <g>
        <path id="TripAdvisor-2" class="cls-4" d="M781.6,192.2c-2.1,0-3.8,1.7-3.8,3.8s1.7,3.8,3.8,3.8,3.8-1.7,3.8-3.8-1.7-3.8-3.8-3.8ZM781.6,199.2c-1.8,0-3.2-1.4-3.2-3.2s1.4-3.2,3.2-3.2,3.2,1.4,3.2,3.2-1.4,3.2-3.2,3.2ZM782.9,195.4c0-.7-.5-1.1-1.2-1.1h-1.2v3.5h.6v-1.3h.7l.6,1.3h.6l-.7-1.4c.4-.2.6-.5.6-1h0ZM781.6,195.9h-.6v-1.2h.6c.4,0,.6.2.6.6s-.2.6-.6.6h0ZM323.2,153.7v-9.2h-14.1v54.8h14.1v-32.8c0-5.9,3.8-8.9,9.8-8.9h7.7v-13.1h-6.6c-5.2,0-9.7,2.7-10.9,9.2ZM353.9,122.9c-4.8,0-8.5,3.8-8.5,8.6s3.7,8.5,8.5,8.5,8.5-3.8,8.5-8.5-3.7-8.6-8.5-8.6ZM346.9,199.3h14.1v-54.8h-14.1v54.8ZM428,171.9c0,15.6-12.7,28.3-28.3,28.3s-12-2.1-16.6-5.6v20.7h-14.1v-70.8h14.1v4.6c4.6-3.5,10.3-5.6,16.6-5.6,15.6,0,28.3,12.7,28.3,28.3h0ZM413.8,171.9c0-8.5-6.9-15.4-15.4-15.4s-15.4,6.9-15.4,15.4,6.9,15.4,15.4,15.4,15.4-6.9,15.4-15.4ZM672.6,167.1l-8.2-2.3c-5.4-1.4-7.5-3.1-7.5-5.9s3-4.7,7.2-4.7,7.2,2.6,7.2,6v.3h13v-.3c0-9.9-8.1-16.6-20.2-16.6s-20.6,6.7-20.6,15.9,4.7,12.5,13,14.8l7.9,2.1c6,1.7,8.2,3.5,8.2,6.8s-3.2,5.8-8,5.8-8.3-3.2-8.3-7.8v-.3h-13.8v.3c0,11.2,9,19.1,22,19.1s21.5-7.7,21.5-18.2-2.3-12-13.4-14.9h0ZM478,144.5h14.1v54.8h-14.1v-4.6c-4.6,3.5-10.3,5.6-16.6,5.6-15.6,0-28.3-12.7-28.3-28.3s12.7-28.3,28.3-28.3,12,2.1,16.6,5.6v-4.8ZM478,171.9h0c0-8.5-6.9-15.4-15.4-15.4s-15.4,6.9-15.4,15.4,6.9,15.4,15.4,15.4,15.4-6.9,15.4-15.4ZM542.9,125h14.1v74.2h-14.1v-4.6c-4.6,3.5-10.3,5.6-16.6,5.6-15.6,0-28.3-12.7-28.3-28.3s12.7-28.3,28.3-28.3,12,2.1,16.6,5.6v-24.1h0ZM542.9,171.9c0-8.5-6.9-15.4-15.4-15.4s-15.4,6.9-15.4,15.4,6.9,15.4,15.4,15.4,15.4-6.9,15.4-15.4ZM622.3,199.3h14.1v-54.8h-14.1v54.8ZM629.3,122.9c-4.8,0-8.5,3.8-8.5,8.6s3.7,8.5,8.5,8.5,8.5-3.8,8.5-8.5-3.7-8.6-8.5-8.6ZM746.9,171.9c0,15.6-12.7,28.3-28.3,28.3s-28.3-12.7-28.3-28.3,12.7-28.3,28.3-28.3,28.3,12.7,28.3,28.3ZM734,171.9c0-8.5-6.9-15.4-15.4-15.4s-15.4,6.9-15.4,15.4,6.9,15.4,15.4,15.4,15.4-6.9,15.4-15.4ZM316,125h-54v12.6h20v61.7h14v-61.7h20v-12.6h0ZM589.1,184.3l-12.5-39.8h-14.8l18.8,54.8h16.9l18.9-54.8h-14.8l-12.5,39.8h0ZM767.5,153.7v-9.2h-14.1v54.8h14.1v-32.8c0-5.9,3.8-8.9,9.8-8.9h7.7v-13.1h-6.6c-5.2,0-9.6,2.7-10.9,9.2Z"></path>
        <circle class="cls-3" cx="180.6" cy="168" r="72"></circle>
        <path d="M225,154l8.7-9.5h-19.3c-9.6-6.6-21.3-10.4-33.9-10.4s-24.2,3.8-33.8,10.4h-19.3l8.7,9.5c-5.3,4.9-8.7,11.9-8.7,19.6,0,14.7,11.9,26.6,26.6,26.6s13.3-2.7,18.1-7.1l8.5,9.3,8.5-9.3c4.7,4.4,11.1,7.1,18,7.1,14.7,0,26.6-11.9,26.6-26.6s-3.3-14.8-8.7-19.6h0ZM154,191.6c-9.9,0-18-8-18-18s8-18,18-18,18,8,18,18-8,18-18,18ZM180.6,173.1c0-11.8-8.6-22-20-26.3,6.1-2.6,12.9-4,19.9-4s13.8,1.4,20,4c-11.3,4.3-19.9,14.5-19.9,26.3ZM207.1,191.6c-9.9,0-18-8-18-18s8-18,18-18,18,8,18,18-8,18-18,18ZM207.1,164.2c-5.2,0-9.4,4.2-9.4,9.4s4.2,9.4,9.4,9.4,9.4-4.2,9.4-9.4-4.2-9.4-9.4-9.4ZM163.4,173.6c0,5.2-4.2,9.4-9.4,9.4s-9.4-4.2-9.4-9.4,4.2-9.4,9.4-9.4,9.4,4.2,9.4,9.4Z"></path>
      </g>
      <g>
        <path class="cls-4" d="M466.1,311.3c0,3.4-1.2,6.2-3.5,8.5-2.4,2.3-5.3,3.4-8.7,3.4s-5.3-.9-7.5-2.6c-2.3-1.7-3.7-4.1-4.5-7l4.3-1.7c.5,2.1,1.5,3.7,2.8,4.9,1.4,1.2,3,1.8,4.8,1.8s4-.7,5.4-2.1c1.4-1.4,2.1-3.1,2.1-5.3s-.7-4-2.1-5.4-3.2-2.1-5.4-2.1-4.5,1-6,3.1l-4.8-2.1,2.3-18h18.7v4.6h-14.7l-1.3,10.2h.2c1.8-1.4,3.9-2.1,6.4-2.1s5.9,1.1,8.1,3.4c2.2,2.3,3.4,5,3.4,8.4Z"></path>
        <path class="cls-4" d="M473.1,328.2l-2.2-1.5,2.8-4.4c-.7-.1-1.3-.5-1.8-1.1-.5-.6-.8-1.3-.8-2.1s.3-1.8,1-2.5c.7-.7,1.5-1,2.5-1s1.8.3,2.5,1c.7.7,1,1.5,1,2.5s-.3,2-1,3.1l-4,6Z"></path>
        <path class="cls-4" d="M504.4,314.9v7.5h-4.8v-7.5h-16.9v-3.6l16.5-24.4h5.2v23.6h4.6v4.5h-4.6ZM488.2,310.4h11.5v-16.6h-.2l-11.3,16.6Z"></path>
        <path class="cls-4" d="M513.6,304.6c0-5.4,1.3-9.9,4-13.4,2.7-3.5,6.1-5.3,10.3-5.3s7.6,1.8,10.3,5.3c2.7,3.5,4,7.9,4,13.3s-1.3,9.8-4,13.4c-2.7,3.5-6.1,5.3-10.3,5.3s-7.6-1.8-10.3-5.3c-2.7-3.6-4-8-4-13.4ZM537.3,304.6c0-4.1-.9-7.5-2.6-10.1-1.7-2.6-4-4-6.8-4s-5.1,1.3-6.8,4c-1.7,2.6-2.6,6-2.6,10.1s.9,7.5,2.6,10.1c1.7,2.6,4,3.9,6.8,3.9s5.1-1.3,6.8-4c1.7-2.7,2.6-6,2.6-10.1Z"></path>
        <path class="cls-4" d="M557.7,309.4c-2.8,0-5.4-1.1-7.7-3.4-2.3-2.3-3.4-5-3.4-8.1s1.2-6,3.6-8.3c2.4-2.4,5.3-3.6,8.5-3.6s6.3,1.2,8.7,3.5c2.4,2.4,3.5,5.1,3.5,8.4s-1.2,6.2-3.5,9.8l-10.3,15.5-3.8-2.7,8.8-12.2h-.1c-1.1.6-2.5,1-4.3,1ZM566.1,297.8c0-2-.7-3.7-2.2-5.1-1.4-1.4-3.2-2.1-5.2-2.1s-3.8.7-5.2,2.1-2.1,3.1-2.1,5.1.7,3.7,2.1,5.1c1.5,1.4,3.2,2.1,5.2,2.1s3.7-.7,5.2-2.1c1.5-1.4,2.2-3.1,2.2-5.1Z"></path>
        <path class="cls-4" d="M599,323.2c-3.8,0-6.9-1.3-9.4-3.8-2.5-2.6-3.7-5.9-3.7-9.7s1.2-7.2,3.7-9.7c2.5-2.6,5.6-3.8,9.4-3.8s4.9.6,6.8,1.9c1.9,1.3,3.4,3.1,4.4,5.4l-4.4,1.8c-1.4-3.2-3.7-4.8-7.1-4.8s-4.1.9-5.7,2.7c-1.6,1.8-2.3,4-2.3,6.6s.8,4.8,2.3,6.6c1.6,1.8,3.5,2.7,5.7,2.7,3.5,0,6-1.6,7.4-4.8l4.3,1.8c-.9,2.3-2.4,4.1-4.4,5.4-2,1.3-4.3,2-6.9,2Z"></path>
        <path class="cls-4" d="M612.8,309.6c0-3.9,1.2-7.2,3.7-9.7,2.5-2.6,5.6-3.8,9.4-3.8s6.9,1.3,9.4,3.8c2.5,2.6,3.7,5.8,3.7,9.7s-1.2,7.2-3.7,9.7c-2.5,2.6-5.6,3.8-9.4,3.8s-6.9-1.3-9.4-3.8c-2.5-2.6-3.7-5.8-3.7-9.7ZM617.6,309.6c0,2.7.8,5,2.4,6.7,1.6,1.7,3.6,2.5,5.9,2.5s4.3-.8,5.9-2.5c1.6-1.7,2.4-3.9,2.4-6.7s-.8-4.9-2.4-6.6c-1.6-1.7-3.6-2.6-5.9-2.6s-4.3.9-5.9,2.6c-1.6,1.7-2.4,3.9-2.4,6.6Z"></path>
        <path class="cls-4" d="M647.6,322.4h-4.8v-25.5h4.6v3.5h.2c.7-1.2,1.8-2.3,3.4-3.1s3-1.2,4.5-1.2,3.5.4,4.9,1.3c1.4.9,2.5,2.1,3.1,3.6,2.1-3.3,5-4.9,8.8-4.9s5.2.9,6.8,2.7c1.6,1.8,2.4,4.4,2.4,7.7v15.9h-4.8v-15.2c0-2.4-.4-4.1-1.3-5.2-.9-1.1-2.3-1.6-4.4-1.6s-3.4.8-4.6,2.3c-1.2,1.6-1.9,3.4-1.9,5.5v14.1h-4.8v-15.2c0-2.4-.4-4.1-1.3-5.2-.9-1.1-2.3-1.6-4.4-1.6s-3.4.8-4.6,2.3c-1.2,1.6-1.9,3.4-1.9,5.5v14.1Z"></path>
        <path class="cls-4" d="M698.6,323.2c-3.7,0-6.8-1.3-9.3-3.8s-3.6-5.8-3.6-9.7,1.2-7.1,3.5-9.7c2.4-2.6,5.4-3.9,9-3.9s6.8,1.2,9,3.7c2.2,2.4,3.4,5.9,3.4,10.3v.5h-20.1c0,2.5.9,4.5,2.5,6,1.6,1.5,3.5,2.3,5.7,2.3s5.4-1.5,7.2-4.6l4.3,2.1c-1.1,2.2-2.7,3.8-4.8,5-2,1.2-4.3,1.8-6.9,1.8ZM691,306.6h14.6c-.1-1.8-.9-3.2-2.2-4.4-1.3-1.2-3-1.7-5.2-1.7s-3.4.6-4.7,1.7c-1.3,1.1-2.2,2.6-2.6,4.5Z"></path>
        <path class="cls-4" d="M715,296.9h4.6v3.5h.2c.7-1.2,1.8-2.3,3.4-3.1s3.1-1.2,4.7-1.2c3.1,0,5.5.9,7.2,2.7,1.7,1.8,2.5,4.3,2.5,7.6v16h-4.8v-15.7c-.1-4.2-2.2-6.2-6.3-6.2s-3.5.8-4.8,2.3c-1.3,1.5-1.9,3.4-1.9,5.5v14.1h-4.8v-25.5Z"></path>
        <path class="cls-4" d="M752,322.8c-2.1,0-3.8-.6-5.2-1.9-1.4-1.3-2.1-3.1-2.1-5.4v-14.2h-4.5v-4.4h4.5v-7.8h4.8v7.8h6.2v4.4h-6.2v12.7c0,1.7.3,2.9,1,3.5.7.6,1.4.9,2.2.9s.8,0,1.1-.1c.4,0,.7-.2,1-.3l1.5,4.3c-1.2.5-2.7.7-4.4.7Z"></path>
        <path class="cls-4" d="M769.5,296.1c3.5,0,6.3.9,8.4,2.8,2,1.9,3.1,4.5,3.1,7.8v15.7h-4.6v-3.5h-.2c-2,2.9-4.6,4.4-7.9,4.4s-5.2-.8-7-2.5c-1.9-1.7-2.8-3.7-2.8-6.2s1-4.7,3-6.3c2-1.6,4.7-2.3,8-2.3s5.2.5,7,1.6v-1.1c0-1.7-.7-3.1-2-4.2s-2.9-1.7-4.6-1.7c-2.7,0-4.8,1.1-6.3,3.4l-4.2-2.7c2.3-3.3,5.8-5,10.3-5ZM763.3,314.6c0,1.2.5,2.3,1.6,3.1,1.1.8,2.3,1.2,3.7,1.2s3.8-.7,5.4-2.2c1.6-1.5,2.4-3.2,2.4-5.3-1.5-1.2-3.6-1.8-6.2-1.8s-3.6.5-4.9,1.4c-1.3.9-1.9,2.1-1.9,3.5Z"></path>
        <path class="cls-4" d="M791.1,322.4h-4.8v-25.5h4.6v4.2h.2c.5-1.4,1.5-2.5,3-3.5,1.5-1,3-1.4,4.4-1.4s2.6.2,3.5.6l-1.5,4.6c-.6-.2-1.5-.4-2.8-.4s-3.4.7-4.7,2.2c-1.3,1.5-2,3.2-2,5.1v14Z"></path>
        <path class="cls-4" d="M811.4,288.1c0,.9-.3,1.7-1,2.4s-1.5,1-2.4,1-1.7-.3-2.4-1c-.7-.7-1-1.5-1-2.4s.3-1.7,1-2.4,1.5-1,2.4-1,1.7.3,2.4,1c.7.7,1,1.5,1,2.4ZM810.4,296.9v25.5h-4.8v-25.5h4.8Z"></path>
        <path class="cls-4" d="M814.9,309.6c0-3.9,1.2-7.2,3.7-9.7,2.5-2.6,5.6-3.8,9.4-3.8s6.9,1.3,9.4,3.8c2.5,2.6,3.7,5.8,3.7,9.7s-1.2,7.2-3.7,9.7c-2.5,2.6-5.6,3.8-9.4,3.8s-6.9-1.3-9.4-3.8c-2.5-2.6-3.7-5.8-3.7-9.7ZM819.7,309.6c0,2.7.8,5,2.4,6.7,1.6,1.7,3.6,2.5,5.9,2.5s4.3-.8,5.9-2.5c1.6-1.7,2.4-3.9,2.4-6.7s-.8-4.9-2.4-6.6c-1.6-1.7-3.6-2.6-5.9-2.6s-4.3.9-5.9,2.6c-1.6,1.7-2.4,3.9-2.4,6.6Z"></path>
        <path class="cls-4" d="M864.7,315.3c0,2.2-1,4.1-2.9,5.6s-4.4,2.3-7.3,2.3-4.8-.7-6.8-2c-1.9-1.3-3.3-3.1-4.2-5.3l4.3-1.8c.6,1.5,1.5,2.7,2.7,3.6,1.2.8,2.5,1.3,3.9,1.3s2.8-.3,3.8-1c1-.7,1.5-1.4,1.5-2.3,0-1.6-1.2-2.8-3.7-3.6l-4.4-1.1c-5-1.2-7.4-3.6-7.4-7.2s.9-4.2,2.8-5.6,4.3-2.1,7.3-2.1,4.3.5,6.1,1.6c1.8,1.1,3.1,2.5,3.8,4.3l-4.3,1.8c-.5-1.1-1.3-1.9-2.4-2.5s-2.3-.9-3.7-.9-2.4.3-3.4.9c-1,.6-1.5,1.4-1.5,2.3,0,1.5,1.4,2.5,4.1,3.1l3.8,1c5.1,1.2,7.6,3.8,7.6,7.6Z"></path>
      </g>
    </g>
  </g>
</svg>