<svg xmlns="http://www.w3.org/2000/svg" viewBox="58 45 942 267" width="942" height="267">
  <defs>
    
  </defs>

  
  <rect x="58" y="45" width="942" height="267" fill="#0e1710"></rect>

  
  <g transform="translate(40 20)">
    <g transform="translate(192.5 167.5)" fill="none" stroke="#c4882a" stroke-width="11" stroke-linecap="round" stroke-linejoin="round">
      <path d="M -10,-20 Q -70,-70 -120,-55 Q -80,-40 -60,-10"></path>
      <path d="M -10,5 Q -75,30 -125,15 Q -85,5 -55,-2"></path>
      <path d="M -10,-20 Q 30,-25 55,5 Q 80,40 130,75"></path>
      <path d="M -10,5 Q 25,5 50,18"></path>
      <path d="M 48,-18 Q 70,-22 78,-8 Q 70,-2 55,-4"></path>
      <circle cx="62" cy="-14" r="6.8" fill="#f4edd8" stroke="none"></circle>
    </g>
  </g>

  
  <text x="392" y="172" font-family="&#39;Cormorant Garamond&#39;, Georgia, serif" font-weight="500" font-size="90" letter-spacing="12" fill="#f4edd8">HUASTECA</text>
  <text x="398" y="222" font-family="ui-monospace, &#39;DejaVu Sans Mono&#39;, &#39;Courier New&#39;, monospace" font-size="28" letter-spacing="13" fill="#8fbe3a">POTOSINA · TOURS</text>
</svg>